<mxfile host="app.diagrams.net" modified="2024-05-31T15:03:17.301Z" agent="Mozilla/5.0 (X11; Linux x86_64) AppleWebKit/537.36 (KHTML, like Gecko) Chrome/125.0.0.0 Safari/537.36" etag="PbS8xlOmkkOKbcsASdIZ" version="24.4.8" type="device" pages="6">
  <diagram name="stack" id="iojS-CCnx_bVfTF9nqe0">
    <mxGraphModel dx="2004" dy="793" grid="1" gridSize="10" guides="1" tooltips="1" connect="1" arrows="1" fold="1" page="1" pageScale="1" pageWidth="1100" pageHeight="850" math="0" shadow="0">
      <root>
        <mxCell id="0" />
        <mxCell id="1" parent="0" />
        <mxCell id="_qikQMmCD5JVBKFu7b-j-10" value="Stack in RAM" style="rounded=0;whiteSpace=wrap;html=1;hachureGap=4;fontFamily=Architects Daughter;fontSource=https%3A%2F%2Ffonts.googleapis.com%2Fcss%3Ffamily%3DArchitects%2BDaughter;movable=1;resizable=1;rotatable=1;deletable=1;editable=1;locked=0;connectable=1;labelPosition=center;verticalLabelPosition=top;align=center;verticalAlign=bottom;fontSize=12;fontStyle=1;" parent="1" vertex="1">
          <mxGeometry x="480" y="110" width="170" height="280" as="geometry" />
        </mxCell>
        <mxCell id="_qikQMmCD5JVBKFu7b-j-19" value="" style="group;" parent="1" vertex="1" connectable="0">
          <mxGeometry x="490" y="120" width="150" height="90" as="geometry" />
        </mxCell>
        <mxCell id="_qikQMmCD5JVBKFu7b-j-11" value="function 1" style="rounded=0;whiteSpace=wrap;html=1;hachureGap=4;fontFamily=Architects Daughter;fontSource=https%3A%2F%2Ffonts.googleapis.com%2Fcss%3Ffamily%3DArchitects%2BDaughter;strokeColor=#FF0000;fontColor=#FF0000;labelPosition=center;verticalLabelPosition=bottom;align=center;verticalAlign=top;" parent="_qikQMmCD5JVBKFu7b-j-19" vertex="1">
          <mxGeometry width="150" height="90" as="geometry" />
        </mxCell>
        <mxCell id="_qikQMmCD5JVBKFu7b-j-12" value="int a" style="text;html=1;align=center;verticalAlign=middle;whiteSpace=wrap;rounded=0;fontFamily=Courier New;fontColor=#FF0000;" parent="_qikQMmCD5JVBKFu7b-j-19" vertex="1">
          <mxGeometry width="60" height="30" as="geometry" />
        </mxCell>
        <mxCell id="_qikQMmCD5JVBKFu7b-j-15" value="int b" style="text;html=1;align=center;verticalAlign=middle;whiteSpace=wrap;rounded=0;fontFamily=Courier New;fontColor=#FF0000;" parent="_qikQMmCD5JVBKFu7b-j-19" vertex="1">
          <mxGeometry y="30" width="60" height="30" as="geometry" />
        </mxCell>
        <mxCell id="_qikQMmCD5JVBKFu7b-j-16" value="int c" style="text;html=1;align=center;verticalAlign=middle;whiteSpace=wrap;rounded=0;fontFamily=Courier New;fontColor=#FF0000;" parent="_qikQMmCD5JVBKFu7b-j-19" vertex="1">
          <mxGeometry y="60" width="60" height="30" as="geometry" />
        </mxCell>
        <mxCell id="_qikQMmCD5JVBKFu7b-j-27" value="" style="group;" parent="1" vertex="1" connectable="0">
          <mxGeometry x="490" y="240" width="150" height="30" as="geometry" />
        </mxCell>
        <mxCell id="_qikQMmCD5JVBKFu7b-j-21" value="function 2" style="rounded=0;whiteSpace=wrap;html=1;hachureGap=4;fontFamily=Architects Daughter;fontSource=https%3A%2F%2Ffonts.googleapis.com%2Fcss%3Ffamily%3DArchitects%2BDaughter;strokeColor=#FF0000;fontColor=#FF0000;labelPosition=center;verticalLabelPosition=bottom;align=center;verticalAlign=top;container=0;" parent="_qikQMmCD5JVBKFu7b-j-27" vertex="1">
          <mxGeometry width="150" height="30" as="geometry" />
        </mxCell>
        <mxCell id="_qikQMmCD5JVBKFu7b-j-22" value="int a" style="text;html=1;align=center;verticalAlign=middle;whiteSpace=wrap;rounded=0;fontFamily=Courier New;fontColor=#FF0000;container=0;" parent="_qikQMmCD5JVBKFu7b-j-27" vertex="1">
          <mxGeometry width="60" height="30" as="geometry" />
        </mxCell>
        <mxCell id="_qikQMmCD5JVBKFu7b-j-32" value="" style="group;" parent="1" vertex="1" connectable="0">
          <mxGeometry x="490" y="300" width="150" height="60" as="geometry" />
        </mxCell>
        <mxCell id="_qikQMmCD5JVBKFu7b-j-29" value="function 3" style="rounded=0;whiteSpace=wrap;html=1;hachureGap=4;fontFamily=Architects Daughter;fontSource=https%3A%2F%2Ffonts.googleapis.com%2Fcss%3Ffamily%3DArchitects%2BDaughter;strokeColor=#FF0000;fontColor=#FF0000;labelPosition=center;verticalLabelPosition=bottom;align=center;verticalAlign=top;container=0;" parent="_qikQMmCD5JVBKFu7b-j-32" vertex="1">
          <mxGeometry width="150" height="60" as="geometry" />
        </mxCell>
        <mxCell id="_qikQMmCD5JVBKFu7b-j-30" value="int a" style="text;html=1;align=center;verticalAlign=middle;whiteSpace=wrap;rounded=0;fontFamily=Courier New;fontColor=#FF0000;container=0;" parent="_qikQMmCD5JVBKFu7b-j-32" vertex="1">
          <mxGeometry width="60" height="30" as="geometry" />
        </mxCell>
        <mxCell id="_qikQMmCD5JVBKFu7b-j-31" value="int b" style="text;html=1;align=center;verticalAlign=middle;whiteSpace=wrap;rounded=0;fontFamily=Courier New;fontColor=#FF0000;container=0;" parent="_qikQMmCD5JVBKFu7b-j-32" vertex="1">
          <mxGeometry y="30" width="60" height="30" as="geometry" />
        </mxCell>
        <mxCell id="_qikQMmCD5JVBKFu7b-j-33" value="0xFF99999" style="text;html=1;align=right;verticalAlign=middle;whiteSpace=wrap;rounded=0;fontStyle=1;spacingRight=3;" parent="1" vertex="1">
          <mxGeometry x="410" y="120" width="70" height="30" as="geometry" />
        </mxCell>
        <mxCell id="_qikQMmCD5JVBKFu7b-j-34" value="0xFF99995" style="text;html=1;align=right;verticalAlign=middle;whiteSpace=wrap;rounded=0;fontStyle=1;spacingRight=3;" parent="1" vertex="1">
          <mxGeometry x="410" y="150" width="70" height="30" as="geometry" />
        </mxCell>
        <mxCell id="_qikQMmCD5JVBKFu7b-j-35" value="0xFF99991" style="text;html=1;align=right;verticalAlign=middle;whiteSpace=wrap;rounded=0;fontStyle=1;spacingRight=3;" parent="1" vertex="1">
          <mxGeometry x="410" y="180" width="70" height="30" as="geometry" />
        </mxCell>
        <mxCell id="_qikQMmCD5JVBKFu7b-j-36" value="" style="endArrow=classic;html=1;rounded=0;" parent="1" edge="1">
          <mxGeometry width="50" height="50" relative="1" as="geometry">
            <mxPoint x="670" y="110" as="sourcePoint" />
            <mxPoint x="670" y="190" as="targetPoint" />
          </mxGeometry>
        </mxCell>
        <mxCell id="yPALnYSojwXTfseWu5V9-2" value="&lt;font data-font-src=&quot;https://fonts.googleapis.com/css?family=Architects+Daughter&quot; face=&quot;Architects Daughter&quot;&gt;each function gets its stack frame&lt;/font&gt;" style="text;html=1;align=center;verticalAlign=middle;whiteSpace=wrap;rounded=0;" parent="1" vertex="1">
          <mxGeometry x="670" y="250" width="200" height="30" as="geometry" />
        </mxCell>
        <mxCell id="yPALnYSojwXTfseWu5V9-3" style="edgeStyle=orthogonalEdgeStyle;rounded=0;orthogonalLoop=1;jettySize=auto;html=1;exitX=1;exitY=0.5;exitDx=0;exitDy=0;curved=1;fontColor=#FF0000;strokeColor=#FF0000;" parent="1" source="_qikQMmCD5JVBKFu7b-j-21" target="yPALnYSojwXTfseWu5V9-2" edge="1">
          <mxGeometry relative="1" as="geometry" />
        </mxCell>
        <mxCell id="yPALnYSojwXTfseWu5V9-4" value="&lt;font face=&quot;Architects Daughter&quot;&gt;direction of growth&lt;/font&gt;" style="text;html=1;align=center;verticalAlign=middle;whiteSpace=wrap;rounded=0;" parent="1" vertex="1">
          <mxGeometry x="670" y="110" width="140" height="30" as="geometry" />
        </mxCell>
        <mxCell id="yPALnYSojwXTfseWu5V9-5" value="0xFF??????" style="text;html=1;align=right;verticalAlign=middle;whiteSpace=wrap;rounded=0;fontStyle=1;spacingRight=3;" parent="1" vertex="1">
          <mxGeometry x="390" y="330" width="80" height="30" as="geometry" />
        </mxCell>
        <mxCell id="yPALnYSojwXTfseWu5V9-6" value="" style="endArrow=classic;html=1;rounded=0;entryX=0;entryY=0.5;entryDx=0;entryDy=0;edgeStyle=orthogonalEdgeStyle;exitX=1;exitY=0.5;exitDx=0;exitDy=0;" parent="1" source="yPALnYSojwXTfseWu5V9-7" target="yPALnYSojwXTfseWu5V9-5" edge="1">
          <mxGeometry width="50" height="50" relative="1" as="geometry">
            <mxPoint x="310" y="350" as="sourcePoint" />
            <mxPoint x="570" y="380" as="targetPoint" />
          </mxGeometry>
        </mxCell>
        <mxCell id="yPALnYSojwXTfseWu5V9-7" value="&lt;font face=&quot;Architects Daughter&quot; data-font-src=&quot;https://fonts.googleapis.com/css?family=Architects+Daughter&quot;&gt;sp&lt;/font&gt;" style="text;html=1;align=center;verticalAlign=middle;whiteSpace=wrap;rounded=0;fontStyle=1" parent="1" vertex="1">
          <mxGeometry x="310" y="330" width="50" height="30" as="geometry" />
        </mxCell>
      </root>
    </mxGraphModel>
  </diagram>
  <diagram name="calling-fuctions-part1" id="PNKUyE5Cw7D3WwoI0T9_">
    <mxGraphModel dx="2004" dy="793" grid="1" gridSize="10" guides="1" tooltips="1" connect="1" arrows="1" fold="1" page="1" pageScale="1" pageWidth="1100" pageHeight="850" math="0" shadow="0">
      <root>
        <mxCell id="lbBd1EDJaA8I3T6ObkIc-0" />
        <mxCell id="lbBd1EDJaA8I3T6ObkIc-1" parent="lbBd1EDJaA8I3T6ObkIc-0" />
        <mxCell id="lbBd1EDJaA8I3T6ObkIc-2" value="Stack in RAM" style="rounded=0;whiteSpace=wrap;html=1;hachureGap=4;fontFamily=Architects Daughter;fontSource=https%3A%2F%2Ffonts.googleapis.com%2Fcss%3Ffamily%3DArchitects%2BDaughter;movable=1;resizable=1;rotatable=1;deletable=1;editable=1;locked=0;connectable=1;labelPosition=center;verticalLabelPosition=top;align=center;verticalAlign=bottom;fontSize=12;fontStyle=1;" parent="lbBd1EDJaA8I3T6ObkIc-1" vertex="1">
          <mxGeometry x="420" y="170" width="170" height="280" as="geometry" />
        </mxCell>
        <mxCell id="lbBd1EDJaA8I3T6ObkIc-3" value="0xFF99999" style="text;html=1;align=right;verticalAlign=middle;whiteSpace=wrap;rounded=0;fontStyle=1;spacingRight=3;fontColor=#0000CC;" parent="lbBd1EDJaA8I3T6ObkIc-1" vertex="1">
          <mxGeometry x="350" y="180" width="70" height="30" as="geometry" />
        </mxCell>
        <mxCell id="lbBd1EDJaA8I3T6ObkIc-4" value="0xFF99987" style="text;html=1;align=right;verticalAlign=middle;whiteSpace=wrap;rounded=0;fontStyle=1;spacingRight=3;" parent="lbBd1EDJaA8I3T6ObkIc-1" vertex="1">
          <mxGeometry x="350" y="274" width="70" height="30" as="geometry" />
        </mxCell>
        <mxCell id="lbBd1EDJaA8I3T6ObkIc-5" style="edgeStyle=orthogonalEdgeStyle;rounded=0;orthogonalLoop=1;jettySize=auto;html=1;entryX=0;entryY=0.5;entryDx=0;entryDy=0;" parent="lbBd1EDJaA8I3T6ObkIc-1" source="lbBd1EDJaA8I3T6ObkIc-6" target="lbBd1EDJaA8I3T6ObkIc-4" edge="1">
          <mxGeometry relative="1" as="geometry" />
        </mxCell>
        <mxCell id="lbBd1EDJaA8I3T6ObkIc-6" value="&lt;font face=&quot;Architects Daughter&quot; data-font-src=&quot;https://fonts.googleapis.com/css?family=Architects+Daughter&quot;&gt;sp&lt;/font&gt;" style="text;html=1;align=center;verticalAlign=middle;whiteSpace=wrap;rounded=0;fontStyle=1" parent="lbBd1EDJaA8I3T6ObkIc-1" vertex="1">
          <mxGeometry x="300" y="274" width="30" height="30" as="geometry" />
        </mxCell>
        <mxCell id="lbBd1EDJaA8I3T6ObkIc-7" value="" style="rounded=0;whiteSpace=wrap;html=1;hachureGap=4;fontFamily=Architects Daughter;fontSource=https%3A%2F%2Ffonts.googleapis.com%2Fcss%3Ffamily%3DArchitects%2BDaughter;strokeColor=#FF0000;fontColor=#FF0000;labelPosition=center;verticalLabelPosition=bottom;align=center;verticalAlign=top;" parent="lbBd1EDJaA8I3T6ObkIc-1" vertex="1">
          <mxGeometry x="430" y="180" width="150" height="110" as="geometry" />
        </mxCell>
        <mxCell id="lbBd1EDJaA8I3T6ObkIc-8" value="int a" style="text;html=1;align=center;verticalAlign=middle;whiteSpace=wrap;rounded=0;fontFamily=Courier New;fontColor=#FF0000;" parent="lbBd1EDJaA8I3T6ObkIc-1" vertex="1">
          <mxGeometry x="430" y="190" width="60" height="30" as="geometry" />
        </mxCell>
        <mxCell id="lbBd1EDJaA8I3T6ObkIc-19" value="considering each int takes 4 bytes" style="shape=note;strokeWidth=2;fontSize=14;size=20;whiteSpace=wrap;html=1;fillColor=#fff2cc;strokeColor=#d6b656;fontColor=#666600;fontFamily=Architects Daughter;fontSource=https%3A%2F%2Ffonts.googleapis.com%2Fcss%3Ffamily%3DArchitects%2BDaughter;fontStyle=1" parent="lbBd1EDJaA8I3T6ObkIc-1" vertex="1">
          <mxGeometry x="630" y="170" width="110.00000000000001" height="80" as="geometry" />
        </mxCell>
        <mxCell id="lbBd1EDJaA8I3T6ObkIc-20" style="edgeStyle=orthogonalEdgeStyle;rounded=0;orthogonalLoop=1;jettySize=auto;html=1;entryX=0;entryY=0.5;entryDx=0;entryDy=0;fontColor=#0000CC;strokeColor=#0000CC;" parent="lbBd1EDJaA8I3T6ObkIc-1" source="lbBd1EDJaA8I3T6ObkIc-21" target="lbBd1EDJaA8I3T6ObkIc-3" edge="1">
          <mxGeometry relative="1" as="geometry" />
        </mxCell>
        <mxCell id="lbBd1EDJaA8I3T6ObkIc-21" value="&lt;font data-font-src=&quot;https://fonts.googleapis.com/css?family=Architects+Daughter&quot; face=&quot;Architects Daughter&quot;&gt;bp&lt;/font&gt;" style="text;html=1;align=center;verticalAlign=middle;whiteSpace=wrap;rounded=0;fontStyle=1;fontColor=#0000CC;" parent="lbBd1EDJaA8I3T6ObkIc-1" vertex="1">
          <mxGeometry x="300" y="180" width="30" height="30" as="geometry" />
        </mxCell>
        <mxCell id="-hodnotq6cqXuXsy-zY6-2" value="int b" style="text;html=1;align=center;verticalAlign=middle;whiteSpace=wrap;rounded=0;fontFamily=Courier New;fontColor=#FF0000;" parent="lbBd1EDJaA8I3T6ObkIc-1" vertex="1">
          <mxGeometry x="430" y="220" width="60" height="30" as="geometry" />
        </mxCell>
        <mxCell id="-hodnotq6cqXuXsy-zY6-3" value="int c" style="text;html=1;align=center;verticalAlign=middle;whiteSpace=wrap;rounded=0;fontFamily=Courier New;fontColor=#FF0000;" parent="lbBd1EDJaA8I3T6ObkIc-1" vertex="1">
          <mxGeometry x="430" y="250" width="60" height="30" as="geometry" />
        </mxCell>
        <mxCell id="-hodnotq6cqXuXsy-zY6-4" value="main" style="text;html=1;align=center;verticalAlign=middle;whiteSpace=wrap;rounded=0;fontFamily=Courier New;fontColor=#000000;" parent="lbBd1EDJaA8I3T6ObkIc-1" vertex="1">
          <mxGeometry x="520" y="260" width="60" height="30" as="geometry" />
        </mxCell>
        <mxCell id="3pYR2etkQ_VL8WHa3zQH-0" value="0xFF99995" style="text;html=1;align=right;verticalAlign=middle;whiteSpace=wrap;rounded=0;fontStyle=0;spacingRight=3;fontColor=#000000;" parent="lbBd1EDJaA8I3T6ObkIc-1" vertex="1">
          <mxGeometry x="350" y="210" width="70" height="30" as="geometry" />
        </mxCell>
        <mxCell id="3pYR2etkQ_VL8WHa3zQH-1" value="0xFF99991" style="text;html=1;align=right;verticalAlign=middle;whiteSpace=wrap;rounded=0;fontStyle=0;spacingRight=3;fontColor=#000000;" parent="lbBd1EDJaA8I3T6ObkIc-1" vertex="1">
          <mxGeometry x="350" y="240" width="70" height="30" as="geometry" />
        </mxCell>
      </root>
    </mxGraphModel>
  </diagram>
  <diagram name="calling-fuctions-part2" id="1b2pr1qpJme3iag4hDa0">
    <mxGraphModel dx="2004" dy="793" grid="1" gridSize="10" guides="1" tooltips="1" connect="1" arrows="1" fold="1" page="1" pageScale="1" pageWidth="1100" pageHeight="850" math="0" shadow="0">
      <root>
        <mxCell id="y0FlhNf6vhOLDBl66njS-0" />
        <mxCell id="y0FlhNf6vhOLDBl66njS-1" parent="y0FlhNf6vhOLDBl66njS-0" />
        <mxCell id="y0FlhNf6vhOLDBl66njS-2" value="Stack in RAM" style="rounded=0;whiteSpace=wrap;html=1;hachureGap=4;fontFamily=Architects Daughter;fontSource=https%3A%2F%2Ffonts.googleapis.com%2Fcss%3Ffamily%3DArchitects%2BDaughter;movable=1;resizable=1;rotatable=1;deletable=1;editable=1;locked=0;connectable=1;labelPosition=center;verticalLabelPosition=top;align=center;verticalAlign=bottom;fontSize=12;fontStyle=1;" parent="y0FlhNf6vhOLDBl66njS-1" vertex="1">
          <mxGeometry x="420" y="170" width="170" height="280" as="geometry" />
        </mxCell>
        <mxCell id="y0FlhNf6vhOLDBl66njS-7" value="" style="rounded=0;whiteSpace=wrap;html=1;hachureGap=4;fontFamily=Architects Daughter;fontSource=https%3A%2F%2Ffonts.googleapis.com%2Fcss%3Ffamily%3DArchitects%2BDaughter;strokeColor=#FF0000;fontColor=#FF0000;labelPosition=center;verticalLabelPosition=bottom;align=center;verticalAlign=top;" parent="y0FlhNf6vhOLDBl66njS-1" vertex="1">
          <mxGeometry x="430" y="180" width="150" height="110" as="geometry" />
        </mxCell>
        <mxCell id="y0FlhNf6vhOLDBl66njS-8" value="int a" style="text;html=1;align=center;verticalAlign=middle;whiteSpace=wrap;rounded=0;fontFamily=Courier New;fontColor=#FF0000;" parent="y0FlhNf6vhOLDBl66njS-1" vertex="1">
          <mxGeometry x="430" y="190" width="60" height="30" as="geometry" />
        </mxCell>
        <mxCell id="y0FlhNf6vhOLDBl66njS-9" value="considering each int takes 4 bytes" style="shape=note;strokeWidth=2;fontSize=14;size=20;whiteSpace=wrap;html=1;fillColor=#fff2cc;strokeColor=#d6b656;fontColor=#666600;fontFamily=Architects Daughter;fontSource=https%3A%2F%2Ffonts.googleapis.com%2Fcss%3Ffamily%3DArchitects%2BDaughter;fontStyle=1" parent="y0FlhNf6vhOLDBl66njS-1" vertex="1">
          <mxGeometry x="630" y="170" width="110.00000000000001" height="80" as="geometry" />
        </mxCell>
        <mxCell id="y0FlhNf6vhOLDBl66njS-12" value="int b" style="text;html=1;align=center;verticalAlign=middle;whiteSpace=wrap;rounded=0;fontFamily=Courier New;fontColor=#FF0000;" parent="y0FlhNf6vhOLDBl66njS-1" vertex="1">
          <mxGeometry x="430" y="220" width="60" height="30" as="geometry" />
        </mxCell>
        <mxCell id="y0FlhNf6vhOLDBl66njS-13" value="int c" style="text;html=1;align=center;verticalAlign=middle;whiteSpace=wrap;rounded=0;fontFamily=Courier New;fontColor=#FF0000;" parent="y0FlhNf6vhOLDBl66njS-1" vertex="1">
          <mxGeometry x="430" y="250" width="60" height="30" as="geometry" />
        </mxCell>
        <mxCell id="QKQyIYjbo_6pFT2Bdkip-2" style="edgeStyle=orthogonalEdgeStyle;rounded=0;orthogonalLoop=1;jettySize=auto;html=1;entryX=1;entryY=0.5;entryDx=0;entryDy=0;" parent="y0FlhNf6vhOLDBl66njS-1" source="y0FlhNf6vhOLDBl66njS-14" target="QKQyIYjbo_6pFT2Bdkip-1" edge="1">
          <mxGeometry relative="1" as="geometry">
            <Array as="points">
              <mxPoint x="600" y="275" />
              <mxPoint x="600" y="425" />
            </Array>
          </mxGeometry>
        </mxCell>
        <mxCell id="y0FlhNf6vhOLDBl66njS-14" value="main" style="text;html=1;align=center;verticalAlign=middle;whiteSpace=wrap;rounded=0;fontFamily=Courier New;fontColor=#000000;" parent="y0FlhNf6vhOLDBl66njS-1" vertex="1">
          <mxGeometry x="520" y="260" width="60" height="30" as="geometry" />
        </mxCell>
        <mxCell id="QKQyIYjbo_6pFT2Bdkip-0" value="" style="rounded=0;whiteSpace=wrap;html=1;hachureGap=4;fontFamily=Architects Daughter;fontSource=https%3A%2F%2Ffonts.googleapis.com%2Fcss%3Ffamily%3DArchitects%2BDaughter;strokeColor=#FF0000;fontColor=#FF0000;labelPosition=center;verticalLabelPosition=bottom;align=center;verticalAlign=top;" parent="y0FlhNf6vhOLDBl66njS-1" vertex="1">
          <mxGeometry x="430" y="290" width="150" height="150" as="geometry" />
        </mxCell>
        <mxCell id="QKQyIYjbo_6pFT2Bdkip-1" value="func1" style="text;html=1;align=center;verticalAlign=middle;whiteSpace=wrap;rounded=0;fontFamily=Courier New;fontColor=#000000;" parent="y0FlhNf6vhOLDBl66njS-1" vertex="1">
          <mxGeometry x="520" y="410" width="60" height="30" as="geometry" />
        </mxCell>
        <mxCell id="QKQyIYjbo_6pFT2Bdkip-3" value="calls&lt;div&gt;&lt;br&gt;&lt;/div&gt;&lt;div&gt;Allocate (push)&lt;/div&gt;" style="text;html=1;align=center;verticalAlign=middle;whiteSpace=wrap;rounded=0;fontFamily=Architects Daughter;fontSource=https%3A%2F%2Ffonts.googleapis.com%2Fcss%3Ffamily%3DArchitects%2BDaughter;" parent="y0FlhNf6vhOLDBl66njS-1" vertex="1">
          <mxGeometry x="620" y="320" width="110" height="50" as="geometry" />
        </mxCell>
        <mxCell id="1jd76vK9J4SVuktHICAa-0" value="0xFF99999" style="text;html=1;align=right;verticalAlign=middle;whiteSpace=wrap;rounded=0;fontStyle=1;spacingRight=3;fontColor=#0000CC;" parent="y0FlhNf6vhOLDBl66njS-1" vertex="1">
          <mxGeometry x="350" y="180" width="70" height="30" as="geometry" />
        </mxCell>
        <mxCell id="1jd76vK9J4SVuktHICAa-1" value="0xFF99987" style="text;html=1;align=right;verticalAlign=middle;whiteSpace=wrap;rounded=0;fontStyle=1;spacingRight=3;" parent="y0FlhNf6vhOLDBl66njS-1" vertex="1">
          <mxGeometry x="350" y="274" width="70" height="30" as="geometry" />
        </mxCell>
        <mxCell id="1jd76vK9J4SVuktHICAa-2" style="edgeStyle=orthogonalEdgeStyle;rounded=0;orthogonalLoop=1;jettySize=auto;html=1;entryX=0;entryY=0.5;entryDx=0;entryDy=0;" parent="y0FlhNf6vhOLDBl66njS-1" source="1jd76vK9J4SVuktHICAa-3" target="1jd76vK9J4SVuktHICAa-1" edge="1">
          <mxGeometry relative="1" as="geometry" />
        </mxCell>
        <mxCell id="1jd76vK9J4SVuktHICAa-3" value="&lt;font face=&quot;Architects Daughter&quot; data-font-src=&quot;https://fonts.googleapis.com/css?family=Architects+Daughter&quot;&gt;sp&lt;/font&gt;" style="text;html=1;align=center;verticalAlign=middle;whiteSpace=wrap;rounded=0;fontStyle=1" parent="y0FlhNf6vhOLDBl66njS-1" vertex="1">
          <mxGeometry x="300" y="274" width="30" height="30" as="geometry" />
        </mxCell>
        <mxCell id="1jd76vK9J4SVuktHICAa-4" style="edgeStyle=orthogonalEdgeStyle;rounded=0;orthogonalLoop=1;jettySize=auto;html=1;entryX=0;entryY=0.5;entryDx=0;entryDy=0;fontColor=#0000CC;strokeColor=#0000CC;" parent="y0FlhNf6vhOLDBl66njS-1" source="1jd76vK9J4SVuktHICAa-5" target="1jd76vK9J4SVuktHICAa-0" edge="1">
          <mxGeometry relative="1" as="geometry" />
        </mxCell>
        <mxCell id="1jd76vK9J4SVuktHICAa-5" value="&lt;font data-font-src=&quot;https://fonts.googleapis.com/css?family=Architects+Daughter&quot; face=&quot;Architects Daughter&quot;&gt;bp&lt;/font&gt;" style="text;html=1;align=center;verticalAlign=middle;whiteSpace=wrap;rounded=0;fontStyle=1;fontColor=#0000CC;" parent="y0FlhNf6vhOLDBl66njS-1" vertex="1">
          <mxGeometry x="300" y="180" width="30" height="30" as="geometry" />
        </mxCell>
        <mxCell id="1jd76vK9J4SVuktHICAa-6" value="0xFF99995" style="text;html=1;align=right;verticalAlign=middle;whiteSpace=wrap;rounded=0;fontStyle=0;spacingRight=3;fontColor=#000000;" parent="y0FlhNf6vhOLDBl66njS-1" vertex="1">
          <mxGeometry x="350" y="210" width="70" height="30" as="geometry" />
        </mxCell>
        <mxCell id="1jd76vK9J4SVuktHICAa-7" value="0xFF99991" style="text;html=1;align=right;verticalAlign=middle;whiteSpace=wrap;rounded=0;fontStyle=0;spacingRight=3;fontColor=#000000;" parent="y0FlhNf6vhOLDBl66njS-1" vertex="1">
          <mxGeometry x="350" y="240" width="70" height="30" as="geometry" />
        </mxCell>
      </root>
    </mxGraphModel>
  </diagram>
  <diagram name="calling-fuctions-part3" id="EOaEujDrJPq9EQaLv5tg">
    <mxGraphModel dx="802" dy="317" grid="1" gridSize="10" guides="1" tooltips="1" connect="1" arrows="1" fold="1" page="1" pageScale="1" pageWidth="1100" pageHeight="850" math="0" shadow="0">
      <root>
        <mxCell id="asvjm19KMb7ySSqYSc77-0" />
        <mxCell id="asvjm19KMb7ySSqYSc77-1" parent="asvjm19KMb7ySSqYSc77-0" />
        <mxCell id="asvjm19KMb7ySSqYSc77-2" value="Stack in RAM" style="rounded=0;whiteSpace=wrap;html=1;hachureGap=4;fontFamily=Architects Daughter;fontSource=https%3A%2F%2Ffonts.googleapis.com%2Fcss%3Ffamily%3DArchitects%2BDaughter;movable=1;resizable=1;rotatable=1;deletable=1;editable=1;locked=0;connectable=1;labelPosition=center;verticalLabelPosition=top;align=center;verticalAlign=bottom;fontSize=12;fontStyle=1;" parent="asvjm19KMb7ySSqYSc77-1" vertex="1">
          <mxGeometry x="420" y="170" width="170" height="280" as="geometry" />
        </mxCell>
        <mxCell id="JLx0xf9AoyyMfPMjvhM8-2" style="edgeStyle=orthogonalEdgeStyle;rounded=0;orthogonalLoop=1;jettySize=auto;html=1;entryX=0;entryY=0.5;entryDx=0;entryDy=0;" edge="1" parent="asvjm19KMb7ySSqYSc77-1" source="asvjm19KMb7ySSqYSc77-6" target="-Cn-VkzPR_L2uoOpY1KB-0">
          <mxGeometry relative="1" as="geometry">
            <mxPoint x="350.0000000000002" y="434.9999999999999" as="targetPoint" />
          </mxGeometry>
        </mxCell>
        <mxCell id="asvjm19KMb7ySSqYSc77-6" value="&lt;font face=&quot;Architects Daughter&quot; data-font-src=&quot;https://fonts.googleapis.com/css?family=Architects+Daughter&quot;&gt;sp&lt;/font&gt;" style="text;html=1;align=center;verticalAlign=middle;whiteSpace=wrap;rounded=0;fontStyle=1" parent="asvjm19KMb7ySSqYSc77-1" vertex="1">
          <mxGeometry x="300" y="310" width="30" height="30" as="geometry" />
        </mxCell>
        <mxCell id="asvjm19KMb7ySSqYSc77-7" value="" style="rounded=0;whiteSpace=wrap;html=1;hachureGap=4;fontFamily=Architects Daughter;fontSource=https%3A%2F%2Ffonts.googleapis.com%2Fcss%3Ffamily%3DArchitects%2BDaughter;strokeColor=#FF0000;fontColor=#FF0000;labelPosition=center;verticalLabelPosition=bottom;align=center;verticalAlign=top;" parent="asvjm19KMb7ySSqYSc77-1" vertex="1">
          <mxGeometry x="430" y="180" width="150" height="110" as="geometry" />
        </mxCell>
        <mxCell id="asvjm19KMb7ySSqYSc77-8" value="int a" style="text;html=1;align=center;verticalAlign=middle;whiteSpace=wrap;rounded=0;fontFamily=Courier New;fontColor=#FF0000;" parent="asvjm19KMb7ySSqYSc77-1" vertex="1">
          <mxGeometry x="430" y="190" width="60" height="30" as="geometry" />
        </mxCell>
        <mxCell id="asvjm19KMb7ySSqYSc77-9" value="considering each int takes 4 bytes" style="shape=note;strokeWidth=2;fontSize=14;size=20;whiteSpace=wrap;html=1;fillColor=#fff2cc;strokeColor=#d6b656;fontColor=#666600;fontFamily=Architects Daughter;fontSource=https%3A%2F%2Ffonts.googleapis.com%2Fcss%3Ffamily%3DArchitects%2BDaughter;fontStyle=1" parent="asvjm19KMb7ySSqYSc77-1" vertex="1">
          <mxGeometry x="630" y="170" width="110.00000000000001" height="80" as="geometry" />
        </mxCell>
        <mxCell id="asvjm19KMb7ySSqYSc77-12" value="int b" style="text;html=1;align=center;verticalAlign=middle;whiteSpace=wrap;rounded=0;fontFamily=Courier New;fontColor=#FF0000;" parent="asvjm19KMb7ySSqYSc77-1" vertex="1">
          <mxGeometry x="430" y="220" width="60" height="30" as="geometry" />
        </mxCell>
        <mxCell id="asvjm19KMb7ySSqYSc77-13" value="int c" style="text;html=1;align=center;verticalAlign=middle;whiteSpace=wrap;rounded=0;fontFamily=Courier New;fontColor=#FF0000;" parent="asvjm19KMb7ySSqYSc77-1" vertex="1">
          <mxGeometry x="430" y="250" width="60" height="30" as="geometry" />
        </mxCell>
        <mxCell id="asvjm19KMb7ySSqYSc77-15" value="main" style="text;html=1;align=center;verticalAlign=middle;whiteSpace=wrap;rounded=0;fontFamily=Courier New;fontColor=#000000;" parent="asvjm19KMb7ySSqYSc77-1" vertex="1">
          <mxGeometry x="520" y="260" width="60" height="30" as="geometry" />
        </mxCell>
        <mxCell id="asvjm19KMb7ySSqYSc77-16" value="" style="rounded=0;whiteSpace=wrap;html=1;hachureGap=4;fontFamily=Architects Daughter;fontSource=https%3A%2F%2Ffonts.googleapis.com%2Fcss%3Ffamily%3DArchitects%2BDaughter;strokeColor=#FF0000;fontColor=#FF0000;labelPosition=center;verticalLabelPosition=bottom;align=center;verticalAlign=top;" parent="asvjm19KMb7ySSqYSc77-1" vertex="1">
          <mxGeometry x="430" y="290" width="150" height="150" as="geometry" />
        </mxCell>
        <mxCell id="asvjm19KMb7ySSqYSc77-17" value="func1" style="text;html=1;align=center;verticalAlign=middle;whiteSpace=wrap;rounded=0;fontFamily=Courier New;fontColor=#000000;" parent="asvjm19KMb7ySSqYSc77-1" vertex="1">
          <mxGeometry x="520" y="410" width="60" height="30" as="geometry" />
        </mxCell>
        <mxCell id="ZZoFJUXObA7PGxmd71Sr-0" value="old bp (main bp)" style="text;html=1;align=center;verticalAlign=middle;whiteSpace=wrap;rounded=0;fontFamily=Courier New;fontColor=#FF0000;fontStyle=1" parent="asvjm19KMb7ySSqYSc77-1" vertex="1">
          <mxGeometry x="430" y="295" width="140" height="30" as="geometry" />
        </mxCell>
        <mxCell id="_nZ2Jj9IOCMoABcXJEKA-0" value="0xFF99999" style="text;html=1;align=right;verticalAlign=middle;whiteSpace=wrap;rounded=0;fontStyle=0;spacingRight=3;fontColor=#000000;" parent="asvjm19KMb7ySSqYSc77-1" vertex="1">
          <mxGeometry x="350" y="180" width="70" height="30" as="geometry" />
        </mxCell>
        <mxCell id="_nZ2Jj9IOCMoABcXJEKA-6" value="0xFF99995" style="text;html=1;align=right;verticalAlign=middle;whiteSpace=wrap;rounded=0;fontStyle=0;spacingRight=3;fontColor=#000000;" parent="asvjm19KMb7ySSqYSc77-1" vertex="1">
          <mxGeometry x="350" y="210" width="70" height="30" as="geometry" />
        </mxCell>
        <mxCell id="_nZ2Jj9IOCMoABcXJEKA-7" value="0xFF99991" style="text;html=1;align=right;verticalAlign=middle;whiteSpace=wrap;rounded=0;fontStyle=0;spacingRight=3;fontColor=#000000;" parent="asvjm19KMb7ySSqYSc77-1" vertex="1">
          <mxGeometry x="350" y="240" width="70" height="30" as="geometry" />
        </mxCell>
        <mxCell id="TA5IKJ6Cp7RfEWy9o9kK-0" value="0xFF99987" style="text;html=1;align=right;verticalAlign=middle;whiteSpace=wrap;rounded=0;fontStyle=1;spacingRight=3;fontColor=#0000CC;" parent="asvjm19KMb7ySSqYSc77-1" vertex="1">
          <mxGeometry x="350" y="274" width="70" height="30" as="geometry" />
        </mxCell>
        <mxCell id="TA5IKJ6Cp7RfEWy9o9kK-2" value="" style="edgeStyle=orthogonalEdgeStyle;rounded=0;orthogonalLoop=1;jettySize=auto;html=1;fontColor=#0000CC;strokeColor=#0000CC;" parent="asvjm19KMb7ySSqYSc77-1" source="TA5IKJ6Cp7RfEWy9o9kK-1" target="TA5IKJ6Cp7RfEWy9o9kK-0" edge="1">
          <mxGeometry relative="1" as="geometry" />
        </mxCell>
        <mxCell id="TA5IKJ6Cp7RfEWy9o9kK-1" value="&lt;font data-font-src=&quot;https://fonts.googleapis.com/css?family=Architects+Daughter&quot; face=&quot;Architects Daughter&quot;&gt;bp&lt;/font&gt;" style="text;html=1;align=center;verticalAlign=middle;whiteSpace=wrap;rounded=0;fontStyle=1;fontColor=#0000CC;" parent="asvjm19KMb7ySSqYSc77-1" vertex="1">
          <mxGeometry x="300" y="274" width="30" height="30" as="geometry" />
        </mxCell>
        <mxCell id="-Cn-VkzPR_L2uoOpY1KB-0" value="0xFF99983" style="text;html=1;align=right;verticalAlign=middle;whiteSpace=wrap;rounded=0;fontStyle=0;spacingRight=3;fontColor=#000000;" parent="asvjm19KMb7ySSqYSc77-1" vertex="1">
          <mxGeometry x="350" y="310" width="70" height="30" as="geometry" />
        </mxCell>
      </root>
    </mxGraphModel>
  </diagram>
  <diagram name="calling-fuctions-part4" id="a3piRGgrMQR3RZqJUuue">
    <mxGraphModel dx="802" dy="317" grid="1" gridSize="10" guides="1" tooltips="1" connect="1" arrows="1" fold="1" page="1" pageScale="1" pageWidth="1100" pageHeight="850" math="0" shadow="0">
      <root>
        <mxCell id="sRUTQ2S4vEs5YnADeXv_-0" />
        <mxCell id="sRUTQ2S4vEs5YnADeXv_-1" parent="sRUTQ2S4vEs5YnADeXv_-0" />
        <mxCell id="sRUTQ2S4vEs5YnADeXv_-2" value="Stack in RAM" style="rounded=0;whiteSpace=wrap;html=1;hachureGap=4;fontFamily=Architects Daughter;fontSource=https%3A%2F%2Ffonts.googleapis.com%2Fcss%3Ffamily%3DArchitects%2BDaughter;movable=1;resizable=1;rotatable=1;deletable=1;editable=1;locked=0;connectable=1;labelPosition=center;verticalLabelPosition=top;align=center;verticalAlign=bottom;fontSize=12;fontStyle=1;" vertex="1" parent="sRUTQ2S4vEs5YnADeXv_-1">
          <mxGeometry x="420" y="170" width="170" height="280" as="geometry" />
        </mxCell>
        <mxCell id="sRUTQ2S4vEs5YnADeXv_-4" style="edgeStyle=orthogonalEdgeStyle;rounded=0;orthogonalLoop=1;jettySize=auto;html=1;entryX=0;entryY=0.5;entryDx=0;entryDy=0;" edge="1" parent="sRUTQ2S4vEs5YnADeXv_-1" source="sRUTQ2S4vEs5YnADeXv_-5" target="sRUTQ2S4vEs5YnADeXv_-24">
          <mxGeometry relative="1" as="geometry">
            <mxPoint x="350" y="435" as="targetPoint" />
          </mxGeometry>
        </mxCell>
        <mxCell id="sRUTQ2S4vEs5YnADeXv_-5" value="&lt;font face=&quot;Architects Daughter&quot; data-font-src=&quot;https://fonts.googleapis.com/css?family=Architects+Daughter&quot;&gt;sp&lt;/font&gt;" style="text;html=1;align=center;verticalAlign=middle;whiteSpace=wrap;rounded=0;fontStyle=1" vertex="1" parent="sRUTQ2S4vEs5YnADeXv_-1">
          <mxGeometry x="300" y="355" width="30" height="30" as="geometry" />
        </mxCell>
        <mxCell id="sRUTQ2S4vEs5YnADeXv_-6" value="" style="rounded=0;whiteSpace=wrap;html=1;hachureGap=4;fontFamily=Architects Daughter;fontSource=https%3A%2F%2Ffonts.googleapis.com%2Fcss%3Ffamily%3DArchitects%2BDaughter;strokeColor=#FF0000;fontColor=#FF0000;labelPosition=center;verticalLabelPosition=bottom;align=center;verticalAlign=top;" vertex="1" parent="sRUTQ2S4vEs5YnADeXv_-1">
          <mxGeometry x="430" y="180" width="150" height="110" as="geometry" />
        </mxCell>
        <mxCell id="sRUTQ2S4vEs5YnADeXv_-7" value="int a" style="text;html=1;align=center;verticalAlign=middle;whiteSpace=wrap;rounded=0;fontFamily=Courier New;fontColor=#FF0000;" vertex="1" parent="sRUTQ2S4vEs5YnADeXv_-1">
          <mxGeometry x="430" y="190" width="60" height="30" as="geometry" />
        </mxCell>
        <mxCell id="sRUTQ2S4vEs5YnADeXv_-8" value="considering each int takes 4 bytes" style="shape=note;strokeWidth=2;fontSize=14;size=20;whiteSpace=wrap;html=1;fillColor=#fff2cc;strokeColor=#d6b656;fontColor=#666600;fontFamily=Architects Daughter;fontSource=https%3A%2F%2Ffonts.googleapis.com%2Fcss%3Ffamily%3DArchitects%2BDaughter;fontStyle=1" vertex="1" parent="sRUTQ2S4vEs5YnADeXv_-1">
          <mxGeometry x="630" y="170" width="110.00000000000001" height="80" as="geometry" />
        </mxCell>
        <mxCell id="sRUTQ2S4vEs5YnADeXv_-9" value="int b" style="text;html=1;align=center;verticalAlign=middle;whiteSpace=wrap;rounded=0;fontFamily=Courier New;fontColor=#FF0000;" vertex="1" parent="sRUTQ2S4vEs5YnADeXv_-1">
          <mxGeometry x="430" y="220" width="60" height="30" as="geometry" />
        </mxCell>
        <mxCell id="sRUTQ2S4vEs5YnADeXv_-10" value="int c" style="text;html=1;align=center;verticalAlign=middle;whiteSpace=wrap;rounded=0;fontFamily=Courier New;fontColor=#FF0000;" vertex="1" parent="sRUTQ2S4vEs5YnADeXv_-1">
          <mxGeometry x="430" y="250" width="60" height="30" as="geometry" />
        </mxCell>
        <mxCell id="sRUTQ2S4vEs5YnADeXv_-11" value="main" style="text;html=1;align=center;verticalAlign=middle;whiteSpace=wrap;rounded=0;fontFamily=Courier New;fontColor=#000000;" vertex="1" parent="sRUTQ2S4vEs5YnADeXv_-1">
          <mxGeometry x="520" y="260" width="60" height="30" as="geometry" />
        </mxCell>
        <mxCell id="sRUTQ2S4vEs5YnADeXv_-12" value="" style="rounded=0;whiteSpace=wrap;html=1;hachureGap=4;fontFamily=Architects Daughter;fontSource=https%3A%2F%2Ffonts.googleapis.com%2Fcss%3Ffamily%3DArchitects%2BDaughter;strokeColor=#FF0000;fontColor=#FF0000;labelPosition=center;verticalLabelPosition=bottom;align=center;verticalAlign=top;" vertex="1" parent="sRUTQ2S4vEs5YnADeXv_-1">
          <mxGeometry x="430" y="290" width="150" height="150" as="geometry" />
        </mxCell>
        <mxCell id="sRUTQ2S4vEs5YnADeXv_-13" value="func1" style="text;html=1;align=center;verticalAlign=middle;whiteSpace=wrap;rounded=0;fontFamily=Courier New;fontColor=#000000;" vertex="1" parent="sRUTQ2S4vEs5YnADeXv_-1">
          <mxGeometry x="520" y="410" width="60" height="30" as="geometry" />
        </mxCell>
        <mxCell id="sRUTQ2S4vEs5YnADeXv_-14" value="old bp (main bp)" style="text;html=1;align=center;verticalAlign=middle;whiteSpace=wrap;rounded=0;fontFamily=Courier New;fontColor=#FF0000;fontStyle=1" vertex="1" parent="sRUTQ2S4vEs5YnADeXv_-1">
          <mxGeometry x="430" y="295" width="140" height="30" as="geometry" />
        </mxCell>
        <mxCell id="sRUTQ2S4vEs5YnADeXv_-17" value="0xFF99999" style="text;html=1;align=right;verticalAlign=middle;whiteSpace=wrap;rounded=0;fontStyle=0;spacingRight=3;fontColor=#000000;" vertex="1" parent="sRUTQ2S4vEs5YnADeXv_-1">
          <mxGeometry x="350" y="180" width="70" height="30" as="geometry" />
        </mxCell>
        <mxCell id="sRUTQ2S4vEs5YnADeXv_-18" value="0xFF99995" style="text;html=1;align=right;verticalAlign=middle;whiteSpace=wrap;rounded=0;fontStyle=0;spacingRight=3;fontColor=#000000;" vertex="1" parent="sRUTQ2S4vEs5YnADeXv_-1">
          <mxGeometry x="350" y="210" width="70" height="30" as="geometry" />
        </mxCell>
        <mxCell id="sRUTQ2S4vEs5YnADeXv_-19" value="0xFF99991" style="text;html=1;align=right;verticalAlign=middle;whiteSpace=wrap;rounded=0;fontStyle=0;spacingRight=3;fontColor=#000000;" vertex="1" parent="sRUTQ2S4vEs5YnADeXv_-1">
          <mxGeometry x="350" y="240" width="70" height="30" as="geometry" />
        </mxCell>
        <mxCell id="sRUTQ2S4vEs5YnADeXv_-20" value="0xFF99987" style="text;html=1;align=right;verticalAlign=middle;whiteSpace=wrap;rounded=0;fontStyle=1;spacingRight=3;fontColor=#0000CC;" vertex="1" parent="sRUTQ2S4vEs5YnADeXv_-1">
          <mxGeometry x="350" y="274" width="70" height="30" as="geometry" />
        </mxCell>
        <mxCell id="sRUTQ2S4vEs5YnADeXv_-21" value="" style="edgeStyle=orthogonalEdgeStyle;rounded=0;orthogonalLoop=1;jettySize=auto;html=1;fontColor=#0000CC;strokeColor=#0000CC;" edge="1" parent="sRUTQ2S4vEs5YnADeXv_-1" source="sRUTQ2S4vEs5YnADeXv_-22" target="sRUTQ2S4vEs5YnADeXv_-20">
          <mxGeometry relative="1" as="geometry" />
        </mxCell>
        <mxCell id="sRUTQ2S4vEs5YnADeXv_-22" value="&lt;font data-font-src=&quot;https://fonts.googleapis.com/css?family=Architects+Daughter&quot; face=&quot;Architects Daughter&quot;&gt;bp&lt;/font&gt;" style="text;html=1;align=center;verticalAlign=middle;whiteSpace=wrap;rounded=0;fontStyle=1;fontColor=#0000CC;" vertex="1" parent="sRUTQ2S4vEs5YnADeXv_-1">
          <mxGeometry x="300" y="274" width="30" height="30" as="geometry" />
        </mxCell>
        <mxCell id="sRUTQ2S4vEs5YnADeXv_-23" value="0xFF99983" style="text;html=1;align=right;verticalAlign=middle;whiteSpace=wrap;rounded=0;fontStyle=0;spacingRight=3;fontColor=#000000;" vertex="1" parent="sRUTQ2S4vEs5YnADeXv_-1">
          <mxGeometry x="350" y="310" width="70" height="30" as="geometry" />
        </mxCell>
        <mxCell id="sRUTQ2S4vEs5YnADeXv_-24" value="0xFF99979" style="text;html=1;align=right;verticalAlign=middle;whiteSpace=wrap;rounded=0;fontStyle=0;spacingRight=3;fontColor=#000000;" vertex="1" parent="sRUTQ2S4vEs5YnADeXv_-1">
          <mxGeometry x="350" y="355" width="70" height="30" as="geometry" />
        </mxCell>
        <mxCell id="sRUTQ2S4vEs5YnADeXv_-25" style="edgeStyle=orthogonalEdgeStyle;rounded=0;orthogonalLoop=1;jettySize=auto;html=1;" edge="1" parent="sRUTQ2S4vEs5YnADeXv_-1" source="sRUTQ2S4vEs5YnADeXv_-26" target="sRUTQ2S4vEs5YnADeXv_-28">
          <mxGeometry relative="1" as="geometry" />
        </mxCell>
        <mxCell id="sRUTQ2S4vEs5YnADeXv_-26" value="main&#39;s return address" style="text;html=1;align=center;verticalAlign=middle;whiteSpace=wrap;rounded=0;fontFamily=Courier New;fontColor=#FF0000;fontStyle=1" vertex="1" parent="sRUTQ2S4vEs5YnADeXv_-1">
          <mxGeometry x="430" y="330" width="140" height="30" as="geometry" />
        </mxCell>
        <mxCell id="sRUTQ2S4vEs5YnADeXv_-28" value="the last instruction that main executed before calling func1" style="text;html=1;align=center;verticalAlign=middle;whiteSpace=wrap;rounded=0;fontFamily=Architects Daughter;fontSource=https%3A%2F%2Ffonts.googleapis.com%2Fcss%3Ffamily%3DArchitects%2BDaughter;" vertex="1" parent="sRUTQ2S4vEs5YnADeXv_-1">
          <mxGeometry x="610" y="330" width="130" height="30" as="geometry" />
        </mxCell>
      </root>
    </mxGraphModel>
  </diagram>
  <diagram name="calling-fuctions-part5" id="iItr1xM2PnBvsKoYDsKk">
    <mxGraphModel dx="2004" dy="793" grid="1" gridSize="10" guides="1" tooltips="1" connect="1" arrows="1" fold="1" page="1" pageScale="1" pageWidth="1100" pageHeight="850" math="0" shadow="0">
      <root>
        <mxCell id="OjuseLSCfq4icQL9mZC0-0" />
        <mxCell id="OjuseLSCfq4icQL9mZC0-1" parent="OjuseLSCfq4icQL9mZC0-0" />
        <mxCell id="OjuseLSCfq4icQL9mZC0-2" value="Stack in RAM" style="rounded=0;whiteSpace=wrap;html=1;hachureGap=4;fontFamily=Architects Daughter;fontSource=https%3A%2F%2Ffonts.googleapis.com%2Fcss%3Ffamily%3DArchitects%2BDaughter;movable=1;resizable=1;rotatable=1;deletable=1;editable=1;locked=0;connectable=1;labelPosition=center;verticalLabelPosition=top;align=center;verticalAlign=bottom;fontSize=12;fontStyle=1;" vertex="1" parent="OjuseLSCfq4icQL9mZC0-1">
          <mxGeometry x="420" y="170" width="170" height="280" as="geometry" />
        </mxCell>
        <mxCell id="OjuseLSCfq4icQL9mZC0-3" value="0xFF99975" style="text;html=1;align=right;verticalAlign=middle;whiteSpace=wrap;rounded=0;fontStyle=0;spacingRight=3;" vertex="1" parent="OjuseLSCfq4icQL9mZC0-1">
          <mxGeometry x="350" y="390" width="70" height="30" as="geometry" />
        </mxCell>
        <mxCell id="OjuseLSCfq4icQL9mZC0-4" style="edgeStyle=orthogonalEdgeStyle;rounded=0;orthogonalLoop=1;jettySize=auto;html=1;entryX=0;entryY=0.5;entryDx=0;entryDy=0;" edge="1" parent="OjuseLSCfq4icQL9mZC0-1" source="OjuseLSCfq4icQL9mZC0-5" target="OjuseLSCfq4icQL9mZC0-27">
          <mxGeometry relative="1" as="geometry" />
        </mxCell>
        <mxCell id="OjuseLSCfq4icQL9mZC0-5" value="&lt;font face=&quot;Architects Daughter&quot; data-font-src=&quot;https://fonts.googleapis.com/css?family=Architects+Daughter&quot;&gt;sp&lt;/font&gt;" style="text;html=1;align=center;verticalAlign=middle;whiteSpace=wrap;rounded=0;fontStyle=1" vertex="1" parent="OjuseLSCfq4icQL9mZC0-1">
          <mxGeometry x="300" y="420" width="30" height="30" as="geometry" />
        </mxCell>
        <mxCell id="OjuseLSCfq4icQL9mZC0-6" value="" style="rounded=0;whiteSpace=wrap;html=1;hachureGap=4;fontFamily=Architects Daughter;fontSource=https%3A%2F%2Ffonts.googleapis.com%2Fcss%3Ffamily%3DArchitects%2BDaughter;strokeColor=#FF0000;fontColor=#FF0000;labelPosition=center;verticalLabelPosition=bottom;align=center;verticalAlign=top;" vertex="1" parent="OjuseLSCfq4icQL9mZC0-1">
          <mxGeometry x="430" y="180" width="150" height="110" as="geometry" />
        </mxCell>
        <mxCell id="OjuseLSCfq4icQL9mZC0-7" value="int a" style="text;html=1;align=center;verticalAlign=middle;whiteSpace=wrap;rounded=0;fontFamily=Courier New;fontColor=#FF0000;" vertex="1" parent="OjuseLSCfq4icQL9mZC0-1">
          <mxGeometry x="430" y="190" width="60" height="30" as="geometry" />
        </mxCell>
        <mxCell id="OjuseLSCfq4icQL9mZC0-8" value="considering each int takes 4 bytes" style="shape=note;strokeWidth=2;fontSize=14;size=20;whiteSpace=wrap;html=1;fillColor=#fff2cc;strokeColor=#d6b656;fontColor=#666600;fontFamily=Architects Daughter;fontSource=https%3A%2F%2Ffonts.googleapis.com%2Fcss%3Ffamily%3DArchitects%2BDaughter;fontStyle=1" vertex="1" parent="OjuseLSCfq4icQL9mZC0-1">
          <mxGeometry x="630" y="170" width="110.00000000000001" height="80" as="geometry" />
        </mxCell>
        <mxCell id="OjuseLSCfq4icQL9mZC0-9" value="int b" style="text;html=1;align=center;verticalAlign=middle;whiteSpace=wrap;rounded=0;fontFamily=Courier New;fontColor=#FF0000;" vertex="1" parent="OjuseLSCfq4icQL9mZC0-1">
          <mxGeometry x="430" y="220" width="60" height="30" as="geometry" />
        </mxCell>
        <mxCell id="OjuseLSCfq4icQL9mZC0-10" value="int c" style="text;html=1;align=center;verticalAlign=middle;whiteSpace=wrap;rounded=0;fontFamily=Courier New;fontColor=#FF0000;" vertex="1" parent="OjuseLSCfq4icQL9mZC0-1">
          <mxGeometry x="430" y="250" width="60" height="30" as="geometry" />
        </mxCell>
        <mxCell id="OjuseLSCfq4icQL9mZC0-11" value="main" style="text;html=1;align=center;verticalAlign=middle;whiteSpace=wrap;rounded=0;fontFamily=Courier New;fontColor=#000000;" vertex="1" parent="OjuseLSCfq4icQL9mZC0-1">
          <mxGeometry x="520" y="260" width="60" height="30" as="geometry" />
        </mxCell>
        <mxCell id="OjuseLSCfq4icQL9mZC0-12" value="" style="rounded=0;whiteSpace=wrap;html=1;hachureGap=4;fontFamily=Architects Daughter;fontSource=https%3A%2F%2Ffonts.googleapis.com%2Fcss%3Ffamily%3DArchitects%2BDaughter;strokeColor=#FF0000;fontColor=#FF0000;labelPosition=center;verticalLabelPosition=bottom;align=center;verticalAlign=top;" vertex="1" parent="OjuseLSCfq4icQL9mZC0-1">
          <mxGeometry x="430" y="290" width="150" height="150" as="geometry" />
        </mxCell>
        <mxCell id="OjuseLSCfq4icQL9mZC0-13" value="func1" style="text;html=1;align=center;verticalAlign=middle;whiteSpace=wrap;rounded=0;fontFamily=Courier New;fontColor=#000000;" vertex="1" parent="OjuseLSCfq4icQL9mZC0-1">
          <mxGeometry x="520" y="410" width="60" height="30" as="geometry" />
        </mxCell>
        <mxCell id="OjuseLSCfq4icQL9mZC0-14" value="old bp (main bp)" style="text;html=1;align=center;verticalAlign=middle;whiteSpace=wrap;rounded=0;fontFamily=Courier New;fontColor=#FF0000;fontStyle=1" vertex="1" parent="OjuseLSCfq4icQL9mZC0-1">
          <mxGeometry x="430" y="295" width="140" height="30" as="geometry" />
        </mxCell>
        <mxCell id="OjuseLSCfq4icQL9mZC0-15" value="int x" style="text;html=1;align=center;verticalAlign=middle;whiteSpace=wrap;rounded=0;fontFamily=Courier New;fontColor=#FF0000;" vertex="1" parent="OjuseLSCfq4icQL9mZC0-1">
          <mxGeometry x="430" y="371" width="60" height="30" as="geometry" />
        </mxCell>
        <mxCell id="OjuseLSCfq4icQL9mZC0-16" value="int y" style="text;html=1;align=center;verticalAlign=middle;whiteSpace=wrap;rounded=0;fontFamily=Courier New;fontColor=#FF0000;" vertex="1" parent="OjuseLSCfq4icQL9mZC0-1">
          <mxGeometry x="430" y="401" width="60" height="30" as="geometry" />
        </mxCell>
        <mxCell id="OjuseLSCfq4icQL9mZC0-17" value="0xFF99999" style="text;html=1;align=right;verticalAlign=middle;whiteSpace=wrap;rounded=0;fontStyle=0;spacingRight=3;fontColor=#000000;" vertex="1" parent="OjuseLSCfq4icQL9mZC0-1">
          <mxGeometry x="350" y="180" width="70" height="30" as="geometry" />
        </mxCell>
        <mxCell id="OjuseLSCfq4icQL9mZC0-18" value="0xFF99995" style="text;html=1;align=right;verticalAlign=middle;whiteSpace=wrap;rounded=0;fontStyle=0;spacingRight=3;fontColor=#000000;" vertex="1" parent="OjuseLSCfq4icQL9mZC0-1">
          <mxGeometry x="350" y="210" width="70" height="30" as="geometry" />
        </mxCell>
        <mxCell id="OjuseLSCfq4icQL9mZC0-19" value="0xFF99991" style="text;html=1;align=right;verticalAlign=middle;whiteSpace=wrap;rounded=0;fontStyle=0;spacingRight=3;fontColor=#000000;" vertex="1" parent="OjuseLSCfq4icQL9mZC0-1">
          <mxGeometry x="350" y="240" width="70" height="30" as="geometry" />
        </mxCell>
        <mxCell id="OjuseLSCfq4icQL9mZC0-20" value="0xFF99987" style="text;html=1;align=right;verticalAlign=middle;whiteSpace=wrap;rounded=0;fontStyle=1;spacingRight=3;fontColor=#0000CC;" vertex="1" parent="OjuseLSCfq4icQL9mZC0-1">
          <mxGeometry x="350" y="274" width="70" height="30" as="geometry" />
        </mxCell>
        <mxCell id="OjuseLSCfq4icQL9mZC0-21" value="" style="edgeStyle=orthogonalEdgeStyle;rounded=0;orthogonalLoop=1;jettySize=auto;html=1;fontColor=#0000CC;strokeColor=#0000CC;" edge="1" parent="OjuseLSCfq4icQL9mZC0-1" source="OjuseLSCfq4icQL9mZC0-22" target="OjuseLSCfq4icQL9mZC0-20">
          <mxGeometry relative="1" as="geometry" />
        </mxCell>
        <mxCell id="OjuseLSCfq4icQL9mZC0-22" value="&lt;font data-font-src=&quot;https://fonts.googleapis.com/css?family=Architects+Daughter&quot; face=&quot;Architects Daughter&quot;&gt;bp&lt;/font&gt;" style="text;html=1;align=center;verticalAlign=middle;whiteSpace=wrap;rounded=0;fontStyle=1;fontColor=#0000CC;" vertex="1" parent="OjuseLSCfq4icQL9mZC0-1">
          <mxGeometry x="300" y="274" width="30" height="30" as="geometry" />
        </mxCell>
        <mxCell id="OjuseLSCfq4icQL9mZC0-23" value="0xFF99983" style="text;html=1;align=right;verticalAlign=middle;whiteSpace=wrap;rounded=0;fontStyle=0;spacingRight=3;fontColor=#000000;" vertex="1" parent="OjuseLSCfq4icQL9mZC0-1">
          <mxGeometry x="350" y="310" width="70" height="30" as="geometry" />
        </mxCell>
        <mxCell id="OjuseLSCfq4icQL9mZC0-24" value="0xFF99979" style="text;html=1;align=right;verticalAlign=middle;whiteSpace=wrap;rounded=0;fontStyle=0;spacingRight=3;fontColor=#000000;" vertex="1" parent="OjuseLSCfq4icQL9mZC0-1">
          <mxGeometry x="350" y="355" width="70" height="30" as="geometry" />
        </mxCell>
        <mxCell id="OjuseLSCfq4icQL9mZC0-25" style="edgeStyle=orthogonalEdgeStyle;rounded=0;orthogonalLoop=1;jettySize=auto;html=1;" edge="1" parent="OjuseLSCfq4icQL9mZC0-1" source="OjuseLSCfq4icQL9mZC0-26" target="OjuseLSCfq4icQL9mZC0-28">
          <mxGeometry relative="1" as="geometry" />
        </mxCell>
        <mxCell id="OjuseLSCfq4icQL9mZC0-26" value="main&#39;s return address" style="text;html=1;align=center;verticalAlign=middle;whiteSpace=wrap;rounded=0;fontFamily=Courier New;fontColor=#FF0000;fontStyle=1" vertex="1" parent="OjuseLSCfq4icQL9mZC0-1">
          <mxGeometry x="430" y="330" width="140" height="30" as="geometry" />
        </mxCell>
        <mxCell id="OjuseLSCfq4icQL9mZC0-27" value="0xFF99971" style="text;html=1;align=right;verticalAlign=middle;whiteSpace=wrap;rounded=0;fontStyle=1;spacingRight=3;" vertex="1" parent="OjuseLSCfq4icQL9mZC0-1">
          <mxGeometry x="350" y="420" width="70" height="30" as="geometry" />
        </mxCell>
        <mxCell id="OjuseLSCfq4icQL9mZC0-28" value="the last instruction that main executed before calling func1" style="text;html=1;align=center;verticalAlign=middle;whiteSpace=wrap;rounded=0;fontFamily=Architects Daughter;fontSource=https%3A%2F%2Ffonts.googleapis.com%2Fcss%3Ffamily%3DArchitects%2BDaughter;" vertex="1" parent="OjuseLSCfq4icQL9mZC0-1">
          <mxGeometry x="610" y="330" width="130" height="30" as="geometry" />
        </mxCell>
      </root>
    </mxGraphModel>
  </diagram>
</mxfile>
